<?xml version="1.0" standalone="no"?>
<!DOCTYPE svg PUBLIC "-//W3C//DTD SVG 20010904//EN"
 "http://www.w3.org/TR/2001/REC-SVG-20010904/DTD/svg10.dtd">
<svg version="1.0" xmlns="http://www.w3.org/2000/svg"
 width="200.000000pt" height="160.000000pt" viewBox="0 0 200.000000 160.000000"
 preserveAspectRatio="xMidYMid meet">

<g transform="translate(0.000000,160.000000) scale(0.100000,-0.100000)"
fill="#000000" stroke="none">
<path d="M740 1140 c0 -6 93 -10 260 -10 167 0 260 4 260 10 0 6 -93 10 -260
10 -167 0 -260 -4 -260 -10z"/>
<path d="M773 1098 c3 -10 57 -13 227 -13 170 0 224 3 228 13 3 9 -47 12 -228
12 -181 0 -231 -3 -227 -12z"/>
<path d="M800 1050 c0 -5 5 -10 10 -10 6 0 10 -90 10 -250 l0 -250 35 0 35 0
0 251 c0 196 3 250 13 247 9 -4 13 -65 15 -251 l2 -247 30 0 30 0 2 248 c3
212 5 247 18 247 13 0 15 -35 18 -247 l2 -248 30 0 30 0 2 247 c2 186 6 247
16 251 9 3 12 -51 12 -247 l0 -251 35 0 35 0 0 250 c0 160 4 250 10 250 6 0
10 5 10 10 0 6 -73 10 -200 10 -127 0 -200 -4 -200 -10z"/>
<path d="M773 508 c3 -10 57 -13 227 -13 170 0 224 3 228 13 3 9 -47 12 -228
12 -181 0 -231 -3 -227 -12z"/>
<path d="M740 460 c0 -6 93 -10 260 -10 167 0 260 4 260 10 0 6 -93 10 -260
10 -167 0 -260 -4 -260 -10z"/>
</g>
</svg>
