<?xml version="1.0" standalone="no"?>
<!DOCTYPE svg PUBLIC "-//W3C//DTD SVG 20010904//EN"
 "http://www.w3.org/TR/2001/REC-SVG-20010904/DTD/svg10.dtd">
<svg version="1.0" xmlns="http://www.w3.org/2000/svg"
 width="50.000000pt" height="50.000000pt" viewBox="0 0 50.000000 50.000000"
 preserveAspectRatio="xMidYMid meet">

<g transform="translate(0.000000,50.000000) scale(0.100000,-0.100000)"
fill="#000000" stroke="none">
<path d="M112 419 c-13 -5 -21 -13 -17 -19 3 -5 0 -7 -8 -4 -8 3 -25 -8 -41
-26 -23 -27 -26 -41 -26 -101 0 -38 3 -69 6 -69 3 0 14 5 25 10 16 9 19 7 19
-10 0 -16 -6 -20 -30 -20 -23 0 -30 -4 -30 -20 0 -15 7 -20 29 -20 23 0 31 -5
34 -22 l4 -23 2 23 c1 27 21 30 21 2 0 -11 5 -20 10 -20 6 0 10 12 10 26 0 30
20 22 21 -9 1 -21 1 -21 8 2 9 34 31 39 31 7 0 -14 5 -26 10 -26 6 0 10 11 10
25 0 16 6 25 15 25 9 0 15 -9 15 -25 0 -34 18 -32 22 3 2 15 8 27 13 27 6 0
11 -12 13 -27 3 -22 9 -28 28 -28 24 0 24 1 9 30 -8 16 -15 38 -15 48 0 11 -9
22 -19 25 -13 3 -22 17 -27 42 -4 25 -13 39 -25 42 -13 4 -21 18 -25 44 -4 22
-10 39 -14 39 -4 0 -13 14 -20 30 -13 32 -21 34 -58 19z m68 -119 c0 -11 -4
-20 -10 -20 -5 0 -10 9 -10 20 0 11 5 20 10 20 6 0 10 -9 10 -20z m-40 -10 c0
-11 -4 -20 -10 -20 -5 0 -10 9 -10 20 0 11 5 20 10 20 6 0 10 -9 10 -20z m-38
-22 c-9 -9 -12 -7 -12 12 0 19 3 21 12 12 9 -9 9 -15 0 -24z m-22 1 c0 -5 -4
-9 -10 -9 -5 0 -10 7 -10 16 0 8 5 12 10 9 6 -3 10 -10 10 -16z m-34 -15 c-4
-9 -9 -15 -11 -12 -3 3 -3 13 1 22 4 9 9 15 11 12 3 -3 3 -13 -1 -22z m134
-39 c0 -26 -14 -33 -25 -15 -9 14 1 40 15 40 5 0 10 -11 10 -25z m50 5 c0 -11
-7 -20 -15 -20 -8 0 -15 9 -15 20 0 11 7 20 15 20 8 0 15 -9 15 -20z m-90 -10
c0 -11 -4 -20 -10 -20 -5 0 -10 9 -10 20 0 11 5 20 10 20 6 0 10 -9 10 -20z
m-40 -5 c0 -8 -4 -15 -10 -15 -5 0 -10 7 -10 15 0 8 5 15 10 15 6 0 10 -7 10
-15z"/>
<path d="M266 254 c9 -38 13 -44 28 -44 8 0 19 -20 25 -44 12 -49 31 -70 31
-36 0 29 22 21 31 -11 7 -23 7 -23 8 -1 1 29 18 29 24 0 4 -23 4 -23 6 1 1 21
4 23 36 18 l36 -6 -3 57 c-3 52 -6 58 -33 71 -16 8 -67 17 -113 19 l-83 5 7
-29z m84 -59 c0 -14 -4 -25 -10 -25 -5 0 -10 11 -10 25 0 14 5 25 10 25 6 0
10 -11 10 -25z m30 0 c0 -8 -4 -15 -10 -15 -5 0 -10 7 -10 15 0 8 5 15 10 15
6 0 10 -7 10 -15z m17 -17 c-3 -7 -5 -2 -5 12 0 14 2 19 5 13 2 -7 2 -19 0
-25z m30 0 c-3 -7 -5 -2 -5 12 0 14 2 19 5 13 2 -7 2 -19 0 -25z m51 5 c2 -8
-5 -13 -17 -13 -12 0 -21 6 -21 16 0 18 31 15 38 -3z"/>
</g>
</svg>
